<svg xmlns="http://www.w3.org/2000/svg" viewBox="0 0 2443 3029" width="2443" height="3029">

	<path id="Path 195" fill='#c4eae7' d="M291.25 2632.73L708.87 2541.03L1156.97 2557.83L1393.03 2546.63L1688.97 2599.47L1956.97 2557.83L2298.8 2611.24L2041.87 2704.89C2041.87 2704.89 1751.75 2817 1738.59 2817C1725.43 2817 1247.83 2817 1247.83 2817L999.64 2767.11L542.02 2715.16L291.25 2632.73Z" />
	<path id="Path 196" fill='#5c3112' d="M653 1435.5L949.11 1697.79L825.95 1536.3L653 1435.5Z" />
	<path id="Path 197" fill='#8e4b1c' d="M825.95 1536.3L729.76 1358.49L1058.01 1692.74L825.95 1536.3Z" />
	<path id="Path 198" fill='#a95e21' d="M949.11 1697.79L1058.01 1692.74L825.95 1536.3L949.11 1697.79Z" />
	<path id="Path 199" fill='#c5742d' d="M949.11 1697.79L1187.11 1954.51L1058.01 1692.74L949.11 1697.79Z" />
	<path id="Path 200" fill='#8e4b1c' d="M1058.01 1692.74L1308.55 1968.06L1187.11 1954.51L1058.01 1692.74Z" />
	<path id="Path 201" fill='#5c3112' d="M1274.35 2062.81L1308.55 1968.06L1187.11 1954.51L1274.35 2062.81Z" />
	<path id="Path 202" fill='#8e4b1c' d="M1637.95 1241.76L1490.31 1635.47L1591.95 1455.66L1637.95 1241.76ZM1591.95 1455.66L1710.99 1299.38L1513.95 1749.16L1591.95 1455.66Z" />
	<path id="Path 203" fill='#c5742d' d="M1490.31 1635.47L1513.95 1749.16L1591.95 1455.66L1490.31 1635.47Z" />
	<path id="Path 204" fill='#8e4b1c' d="M1490.31 1635.47L1336.4 1966.01L1513.95 1749.16L1490.31 1635.47Z" />
	<path id="Path 205" fill='#5c3112' d="M1513.95 1749.16L1354.41 2143.74L1336.4 1966.01L1513.95 1749.16Z" />
	<path id="Path 206" fill='#020407' d="M1296.33 2070.97L1354.41 2143.74L1336.4 1966.01L1296.33 2070.97Z" />
	<path id="Path 207" fill='#3e923e' d="M100 923.36L917.08 574.9L915.76 1147.84L100 923.36Z" />
	<path id="Path 208" fill='#295f2c' d="M100 923.36L427.24 1516.36L915.76 1147.84L100 923.36Z" />
	<path id="Path 209" fill='#6cc248' d="M100 923.36L349.33 436.25L917.08 574.9L100 923.36Z" />
	<path id="Path 210" fill='#9ece47' d="M349.33 436.25L1173.5 108L917.08 574.9L349.33 436.25Z" />
	  <path id="Path 2" fill='#337534' d="M1967.35 1062.98L945.21 1125.08L1467.72 878.03L1967.35 1062.98Z" />
	<path id="Path 211" fill='#6cc248' d="M1165.36 108L1459.93 859.83L908.94 574.9L1165.36 108Z" />
	<path id="Path 212" fill='#51b046' d="M1165.36 108L1974.09 251.56L1459.93 859.83L1165.36 108ZM1459.93 859.83L907.62 1147.84L908.94 574.9L1459.93 859.83Z" />
	<path id="Path 213" fill='#3e923e' d="M1468.07 859.83L1982.23 1071.61L1982.23 251.56L1468.07 859.83Z" />
	<path id="Path 214" fill='#327634' d="M1982.23 251.56L2344 923.36L1982.23 1071.61L1982.23 251.56ZM915.76 1147.84L1982.23 1071.61L1468.07 859.83L915.76 1147.84Z" />
	<path id="Path 215" fill='#295f2c' d="M1982.23 1071.61L1952.55 1408.78L2344 923.36L1982.23 1071.61Z" />
	<path id="Path 216" fill='#3e923e' d="M1952.55 1408.78L915.76 1147.84L1982.23 1071.61L1952.55 1408.78Z" />
	<path id="Path 217" fill='#327634' d="M427.24 1516.36L745.33 1595.75L915.76 1147.84L427.24 1516.36Z" />
	<path id="Path 218" fill='#295f2c' d="M1577.85 1535.3L1952.55 1408.78L915.76 1147.84L1577.85 1535.3ZM745.33 1595.75L991.6 1459.83L915.76 1147.84L745.33 1595.75Z" />
	<path id="Path 219" fill='#224620' d="M991.6 1459.83L1577.85 1535.3L915.76 1147.84L991.6 1459.83Z" />
	<path id="Path 220" fill='#8e4b1c' d="M1274.89 1931.05L1278.11 2183.12L1296.23 1954.51L1274.89 1931.05ZM1296.23 1954.51L1358.93 1917.65L1355.93 2270.64L1296.23 1954.51Z" />
	 <path id="Path 22" fill='#8e4b1c' d="M1375 1970.4L1371.28 2222.47L1350.36 1993.86L1375 1970.4ZM1350.36 1993.86L1278 1957L1281.47 2309.99L1350.36 1993.86Z" />
	<path id="Path 221" fill='#c5742d' d="M1278.11 2183.12L1355.93 2270.64L1296.23 1954.51L1278.11 2183.12Z" />
	<path id="Path 222" fill='#8e4b1c' d="M1278.11 2183.12L1214.59 2557.83L1355.93 2270.64L1278.11 2183.12Z" />
	<path id="Path 223" fill='#5c3112' d="M1355.93 2270.64L1316.97 2704.89L1214.59 2557.83L1355.93 2270.64ZM1214.59 2557.83L1102.37 2680.6L1205.56 2704.89L1214.59 2557.83Z" />
	<path id="Path 224" fill='#8e4b1c' d="M1205.56 2704.89L1316.97 2704.89L1214.59 2557.83L1205.56 2704.89ZM1316.97 2704.89L1381.34 2652.52L1355.93 2270.64L1316.97 2704.89Z" />
</svg>