<svg xmlns="http://www.w3.org/2000/svg" viewBox="0 0 2288 2587" width="2288" height="2587">
	<style>
		tspan { white-space:pre }
		.shp0 { fill: #d3d7d1 } 
		.shp1 { fill: #402116 } 
		.shp2 { fill: #6d3517 } 
		.shp3 { fill: #532818 } 
		.shp4 { fill: #9e6644 } 
		.shp5 { fill: #af7556 } 
		.shp6 { fill: #b4957a } 
		.shp7 { fill: #8d401b } 
		.shp8 { fill: #4a933d } 
		.shp9 { fill: #5ea641 } 
		.shp10 { fill: #2d7c38 } 
		.shp11 { fill: #85c044 } 
		.shp12 { fill: #c1d742 } 
		.shp13 { fill: #afd243 } 
		.shp14 { fill: #97c944 } 
	</style>
	<path id="Path 79" class="shp0" d="M1250.53 2521.07C870.17 2521.07 561.83 2473.97 561.83 2415.88C561.83 2357.76 870.17 2310.66 1250.53 2310.66C1630.88 2310.66 1939.22 2357.76 1939.22 2415.88C1939.22 2473.97 1630.88 2521.07 1250.53 2521.07Z" />
	<path id="Path 80" class="shp1" d="M959.14 2362.24L817.98 2415.87C821.21 2415.87 891.93 2415.87 993.26 2415.87L959.14 2362.24Z" />
	<path id="Path 81" class="shp2" d="M959.14 2362.24L993.26 2415.87L994.16 2415.87L1027.14 2336.4L959.14 2362.24Z" />
	<path id="Path 82" class="shp3" d="M1029.02 2335.68L1027.14 2336.4L994.16 2415.87C1027.78 2415.87 1064.81 2415.87 1103.84 2415.87L1029.02 2335.68Z" />
	<path id="Path 83" class="shp4" d="M1152.42 2288.81L1150.74 2289.43L1151.67 2290.77L1152.42 2288.81Z" />
	<path id="Path 84" class="shp1" d="M1150.74 2289.43L1029.02 2335.68L1103.84 2415.87L1105.17 2415.87L1151.67 2290.77L1150.74 2289.43Z" />
	<path id="Path 85" class="shp5" d="M1487.03 2302.12L1483.82 2301.31L1433.28 2362.39L1389.01 2415.87C1423.1 2415.87 1456.69 2415.87 1488.6 2415.87L1487.03 2302.12Z" />
	<path id="Path 86" class="shp6" d="M1483.82 2301.31L1337.38 2263.66L1433.28 2362.39L1483.82 2301.31Z" />
	<path id="Path 87" class="shp4" d="M1339.17 2265.51L1387.26 2415.87L1389.01 2415.87L1433.28 2362.39L1339.17 2265.51Z" />
	<path id="Path 88" class="shp2" d="M1360.98 2333.69L1154.84 2287.9L1152.42 2288.81L1151.67 2290.77L1237.45 2415.18L1361.48 2335.24L1360.98 2333.69Z" />
	<path id="Path 89" class="shp3" d="M1387.26 2415.87L1361.48 2335.24L1237.45 2415.18L1237.92 2415.87C1287.75 2415.87 1338.12 2415.87 1387.26 2415.87Z" />
	<path id="Path 90" class="shp5" d="M1360.98 2333.69L1339.17 2265.51L1337.38 2263.66L1328.08 2261.27L1239.01 2306.61L1360.98 2333.69Z" />
	<path id="Path 91" class="shp4" d="M1326.62 2260.89L1326.56 2256.64L1245.53 2171.24L1237.78 2306.33L1239.01 2306.61L1328.08 2261.27L1326.62 2260.89ZM1249.99 2046.49L1252.32 2053L1252.54 2049.26L1249.99 2046.49ZM1252.54 2049.26L1324.7 2127.94L1322.77 1997.08L1252.64 2047.47L1252.54 2049.26ZM1251.58 2048.23L1252.54 2049.26L1252.64 2047.47L1251.58 2048.23Z" />
	<path id="Path 92" class="shp6" d="M1502.67 1490.25L1574.59 1620.48L1580.93 1490.25L1502.67 1490.25Z" />
	<path id="Path 93" class="shp5" d="M1502.67 1490.25L1501.46 1490.25L1464.99 1590.83L1570.84 1655.04L1572.98 1653.6L1574.59 1620.48L1502.67 1490.25Z" />
	<path id="Path 94" class="shp2" d="M1464.99 1590.83L1451.79 1627.18L1567.86 1657.01L1570.84 1655.04L1464.99 1590.83Z" />
	<path id="Path 95" class="shp4" d="M1451.79 1627.18L1451.04 1629.26L1479.27 1716.22L1567.86 1657.01L1451.79 1627.18Z" />
	<path id="Path 96" class="shp7" d="M1451.04 1629.26L1449.8 1632.66L1379.33 1672.11L1478.73 1714.58L1451.04 1629.26Z" />
	<path id="Path 97" class="shp2" d="M1478.73 1714.58L1382.62 1673.53L1385.59 1778.79L1479.27 1716.22L1478.73 1714.58ZM1385.59 1778.79L1385.54 1776.43L1327.5 1701.14L1322.64 1703.86L1322.03 1698.84L1299.33 1836.41L1385.59 1778.79Z" />
	<path id="Path 98" class="shp7" d="M1290.86 1444.18L1229.81 1457.44L1248.97 1579.37L1291.33 1448.04L1290.86 1444.18Z" />
	<path id="Path 99" class="shp1" d="M1291.33 1448.04L1248.97 1579.37L1250.53 1589.24L1320.47 1685.99L1291.33 1448.04ZM1229.81 1457.44L1155.74 1473.5L1174.32 1669.14L1230.67 1462.99L1229.81 1457.44Z" />
	<path id="Path 100" class="shp4" d="M1247.92 1585.64L1247.25 1584.7L1246.46 1587.17L1247.92 1585.64Z" />
	<path id="Path 101" class="shp2" d="M1250.53 1589.24L1247.92 1585.64L1246.46 1587.17L1244.35 1589.34L1212.15 1685.49L1317.56 1681.97L1250.53 1589.24Z" />
	<path id="Path 102" class="shp7" d="M1320.47 1685.99L1317.56 1681.97L1213.99 1685.43L1297.75 1837.46L1299.33 1836.41L1322.03 1698.84L1320.47 1685.99Z" />
	<path id="Path 103" class="shp2" d="M1213.99 1685.43L1212.15 1685.49L1177.2 1789.91L1295.52 1838.95L1297.75 1837.46L1213.99 1685.43Z" />
	<path id="Path 104" class="shp1" d="M1177.2 1789.91L1175.61 1794.6L1175.61 1833.7L1173.29 1832.22L1181.51 1855.21L1293.45 1840.34L1295.52 1838.95L1177.2 1789.91Z" />
	<path id="Path 105" class="shp4" d="M1290.86 1842.06L1293.45 1840.34L1187.66 1854.39L1306.34 1913.51L1290.86 1842.06Z" />
	<path id="Path 106" class="shp7" d="M1306.34 1913.51L1187.66 1854.39L1181.51 1855.21L1249.99 2046.49L1251.18 2047.76L1252.84 2043.97L1307.62 1919.38L1306.34 1913.51Z" />
	<path id="Path 107" class="shp5" d="M1322.64 1988.66L1307.62 1919.38L1252.84 2043.97L1252.64 2047.47L1322.77 1997.08L1322.64 1988.66Z" />
	<path id="Path 108" class="shp4" d="M1251.18 2047.76L1251.58 2048.23L1252.64 2047.47L1252.84 2043.97L1251.18 2047.76Z" />
	<path id="Path 109" class="shp1" d="M1244.35 1589.34L1177.01 1659.29L1174.32 1669.14L1175.61 1682.92L1175.61 1794.6L1244.35 1589.34Z" />
	<path id="Path 110" class="shp3" d="M1230.67 1462.99L1177.01 1659.29L1246.46 1587.17L1247.25 1584.7L1248.97 1579.37L1230.67 1462.99Z" />
	<path id="Path 111" class="shp4" d="M1250.53 1589.24L1248.97 1579.37L1247.25 1584.7L1250.53 1589.24Z" />
	<path id="Path 112" class="shp3" d="M1382.62 1673.53L1379.33 1672.11L1327.5 1701.14L1385.54 1776.43L1382.62 1673.53Z" />
	<path id="Path 113" class="shp5" d="M1324.7 2127.94L1252.54 2049.26L1252.32 2053L1245.53 2171.24L1245.85 2171.57L1324.72 2130.32L1324.7 2127.94Z" />
	<path id="Path 114" class="shp6" d="M1324.72 2130.32L1245.85 2171.57L1326.56 2256.64L1324.72 2130.32Z" />
	<path id="Path 115" class="shp1" d="M817.98 1402.3L860.51 1525.56L954.92 1415.42L817.98 1402.3Z" />
	<path id="Path 116" class="shp2" d="M992.83 1419.06L954.92 1415.42L954.48 1415.93L995.37 1612.14L992.83 1419.06ZM994.56 1608.27L862.59 1523.12L860.51 1525.56L895.81 1627.84L995.01 1610.41L994.56 1608.27Z" />
	<path id="Path 117" class="shp4" d="M578.22 1678.48L576.23 1680.64C577.35 1680.93 578.44 1681.23 579.59 1681.52L578.22 1678.48Z" />
	<path id="Path 118" class="shp2" d="M514.92 1537.4L512 1536.32C512 1536.32 440.48 1649.42 452.4 1649.42C456.22 1649.42 507.85 1662.66 576.23 1680.64L578.22 1678.48L514.92 1537.4Z" />
	<path id="Path 119" class="shp1" d="M514.92 1537.4L578.22 1678.48L659.51 1590.48L514.92 1537.4Z" />
	<path id="Path 120" class="shp3" d="M661.23 1591.12L659.51 1590.48L578.22 1678.48L579.59 1681.52C623.37 1693.04 673.74 1706.45 722.85 1719.57L661.23 1591.12Z" />
	<path id="Path 121" class="shp7" d="M661.23 1591.12L696.69 1665.02L793.78 1639.77L661.23 1591.12Z" />
	<path id="Path 122" class="shp2" d="M696.69 1665.02L722.85 1719.57C723.54 1719.76 724.25 1719.94 724.94 1720.12L790.97 1640.51L696.69 1665.02Z" />
	<path id="Path 123" class="shp1" d="M796.11 1640.62L793.78 1639.77L790.97 1640.51L724.94 1720.12C776.72 1733.94 826.8 1747.37 866.16 1757.97L796.11 1640.62Z" />
	<path id="Path 124" class="shp3" d="M895.79 1634.42L865.66 1666.16L796.11 1640.62L866.16 1757.97L867.52 1758.31L896.04 1634.64L895.79 1634.42Z" />
	<path id="Path 125" class="shp2" d="M996.77 1718.45L896.04 1634.64L868.68 1753.27L996.78 1718.88L996.77 1718.45Z" />
	<path id="Path 126" class="shp7" d="M998.69 1721.8L984.3 1817.02L1077.7 1771.75L998.69 1721.8Z" />
	<path id="Path 127" class="shp3" d="M1159.87 2280.35L1159.72 2286.03L1154.84 2287.9L1237.78 2306.33L1244.61 2187.3L1159.87 2280.35Z" />
	<path id="Path 128" class="shp2" d="M1125.75 2001.33L1160.88 2113.67L1252.18 2055.35L1252.23 2054.47L1125.75 2001.33Z" />
	<path id="Path 129" class="shp3" d="M1173.29 1832.22L1078.91 1772.54L1100.27 1935.41L1105.67 1940.83L1173.37 1832.46L1173.29 1832.22Z" />
	<path id="Path 130" class="shp2" d="M1173.37 1832.46L1105.67 1940.83L1107.41 1942.58L1125.75 2001.33L1127.24 2001.96L1197.37 1899.5L1173.37 1832.46Z" />
	<path id="Path 131" class="shp3" d="M1197.37 1899.5L1127.24 2001.96L1252.23 2054.47L1252.32 2053L1197.37 1899.5ZM1160.88 2113.67L1161.32 2115.06L1244.74 2185.06L1252.18 2055.35L1160.88 2113.67Z" />
	<path id="Path 132" class="shp1" d="M1161.32 2115.06L1163.7 2122.68L1159.87 2280.35L1244.61 2187.3L1244.74 2185.06L1161.32 2115.06ZM1077.7 1771.75L984.3 1817.02L984.09 1818.45L1100.27 1935.41L1078.91 1772.54L1077.7 1771.75Z" />
	<path id="Path 133" class="shp3" d="M996.8 1720.61L996.78 1718.88L868.68 1753.27L867.52 1758.31C913.97 1770.84 945.14 1779.24 945.14 1779.24L984.09 1818.45L998.69 1721.8L996.8 1720.61Z" />
	<path id="Path 134" class="shp1" d="M996.77 1718.45L995.37 1612.14L995.01 1610.41L895.81 1627.84L897.46 1632.66L895.79 1634.42L996.77 1718.45Z" />
	<path id="Path 135" class="shp3" d="M954.48 1415.93L862.59 1523.12L994.56 1608.27L954.48 1415.93ZM1151.67 2290.77L1105.17 2415.87C1147.62 2415.87 1192.47 2415.87 1237.92 2415.87L1151.67 2290.77Z" />
	<path id="Path 136" class="shp4" d="M1489.53 2302.77L1487.03 2302.12L1488.6 2415.87C1489.55 2415.87 1490.53 2415.87 1491.46 2415.87L1582.11 2340.96L1489.53 2302.77Z" />
	<path id="Path 137" class="shp5" d="M1582.67 2341.19L1582.11 2340.96L1491.46 2415.87C1531.82 2415.87 1569.82 2415.87 1603.86 2415.87L1582.67 2341.19Z" />
	<path id="Path 138" class="shp6" d="M1582.67 2341.19L1603.86 2415.87C1699.18 2415.87 1763.73 2415.87 1763.73 2415.87L1582.67 2341.19Z" />
	<path id="Path 139" class="shp8" d="M877.79 1614.53L293.55 1682.5L752.6 1218.67L877.79 1614.53ZM293.55 1682.5L111.45 1450.59L270.8 1350.62L293.55 1682.5Z" />
	<path id="Path 140" class="shp9" d="M270.8 1350.62L532.41 1441.16L293.55 1682.5L270.8 1350.62ZM270.8 1350.62L73.51 1256.66L221.47 974.25L270.8 1350.62Z" />
	<path id="Path 141" class="shp8" d="M221.47 974.25L24.18 950.75L73.51 1256.66L221.47 974.25Z" />
	<path id="Path 142" class="shp10" d="M221.47 974.25L373.23 783.44L122.84 738.82L221.47 974.25Z" />
	<path id="Path 143" class="shp11" d="M373.23 783.44L475.66 446.91L524.97 826.79L373.23 783.44Z" />
	<path id="Path 144" class="shp8" d="M475.66 446.91L790.55 370.23L524.97 826.79L475.66 446.91Z" />
	<path id="Path 145" class="shp11" d="M790.55 370.23L1059.9 179L1325.48 538.89L790.55 370.23Z" />
	<path id="Path 146" class="shp8" d="M1059.9 179L1386.19 199L1325.48 538.89L1059.9 179Z" />
	<path id="Path 147" class="shp9" d="M1386.19 199L1560.69 446.91L1325.48 538.89L1386.19 199Z" />
	<path id="Path 148" class="shp12" d="M1533.52 408.32L1670.28 599.34L1731.41 370.23L1533.52 408.32Z" />
	<path id="Path 149" class="shp9" d="M1731.41 370.23L1962.85 714.83L1669.75 598.5L1731.41 370.23Z" />
	<path id="Path 150" class="shp10" d="M1962.85 714.83L2076.66 950.75L1761.78 1007.74L1962.85 714.83Z" />
	<path id="Path 151" class="shp8" d="M2076.66 950.75L2004.57 1278.64L2236 1196.66L2076.66 950.75Z" />
	<path id="Path 152" class="shp10" d="M2236 1196.66L2076.66 1516.57L2004.57 1278.64L2236 1196.66Z" />
	<path id="Path 153" class="shp8" d="M2076.66 1516.57C2076.66 1516.57 1579.67 1650.52 1591.05 1634.53C1602.44 1618.53 2004.57 1278.64 2004.57 1278.64L2076.66 1516.57Z" />
	<path id="Path 154" class="shp11" d="M1591.05 1634.53L1204.08 1516.57L2004.57 1278.64L1591.05 1634.53ZM1204.08 1516.57L861.99 1616.37L752.6 1218.67L1204.08 1516.57Z" />
	<path id="Path 155" class="shp13" d="M752.6 1218.67L2004.57 1278.64L1204.08 1516.57L752.6 1218.67ZM752.6 1218.67L221.47 974.25L529.57 1444.03L752.6 1218.67Z" />
	<path id="Path 156" class="shp11" d="M529.57 1444.03L221.47 974.25L270.8 1350.62L529.57 1444.03Z" />
	<path id="Path 157" class="shp9" d="M524.97 826.79L221.47 974.25L363.59 781.72L524.97 826.79Z" />
	<path id="Path 158" class="shp12" d="M524.97 826.79L752.6 1218.67L221.47 974.25L524.97 826.79Z" />
	<path id="Path 159" class="shp9" d="M524.97 826.79L1325.48 538.89L790.55 370.23L524.97 826.79Z" />
	<path id="Path 160" class="shp13" d="M978.34 663.73L745.01 1218.67L511.7 826.79L978.34 663.73Z" />
	<path id="Path 161" class="shp12" d="M978.34 667.5L1266.65 1247.06L745.01 1222.43L978.34 667.5Z" />
	<path id="Path 162" class="shp13" d="M978.34 663.73L1562.13 446.91L1129.31 967.19L978.34 663.73ZM1132.81 974.25L1266.65 1243.29L1505.69 920.76L1129.31 967.19L1132.81 974.25Z" />
	<path id="Path 163" class="shp12" d="M1129.31 967.19L1850.84 877.99L1962.85 714.83L1129.31 967.19Z" />
	<path id="Path 164" class="shp11" d="M1562.13 446.91L1789.54 767.29L1129.31 967.19L1562.13 446.91Z" />
	<path id="Path 165" class="shp8" d="M1669.75 598.5L1962.85 714.83L1780.74 770.82L1669.75 598.5Z" />
	<path id="Path 166" class="shp13" d="M1761.78 1007.74L1504.85 920.76L1850.84 877.99L1761.78 1007.74Z" />
	<path id="Path 167" class="shp8" d="M1761.78 1007.74L2004.57 1278.64L2076.66 950.75L1761.78 1007.74Z" />
	<path id="Path 168" class="shp11" d="M1765.56 1007.74L1266.65 1243.29L1504.85 920.76L1765.56 1007.74Z" />
	<path id="Path 169" fill="#97c944" d="M1761.78 1006.47L2004.57 1278.64L1263.02 1243.12L1761.78 1006.47Z" />
</svg>