<svg xmlns="http://www.w3.org/2000/svg" viewBox="0 0 1908 2511" width="1908" height="2511">
	<path id="Path 2" fill='#365e00' d="M691.61 1444.15L1062.26 1376.34L1642.05 1681.25L691.61 1444.15ZM584.33 1756.2L774.25 1923.3L691.61 1444.15L584.33 1756.2Z" />
	<path id="Path 3" fill='#407300' d="M691.61 1444.15L1642.05 1681.25L774.25 1923.3L691.61 1444.15Z" />
	<path id="Path 4" fill='#bc946d' d="M1001.32 1065.5L945.85 2411.48L915.04 2373.77L1001.32 1065.5Z" />
	<path id="Path 5" fill='#9e703d' d="M945.85 2411.48L1007.29 2377.78L1001.32 1065.5L945.85 2411.48Z" />
	<path id="Path 6" fill='#bc946d' d="M937.26 2036.45L771.71 1796.31L939.29 2006.32L937.26 2036.45ZM771.71 1796.31L642.62 1382.13L793.44 1823.53L771.71 1796.31Z" />
	<path id="Path 7" fill='#9e703d' d="M642.62 1382.13L793.44 1823.53L939.29 2006.32L943.08 1948.24L793.44 1782.57L642.62 1382.13ZM987.8 2083.3L1236.54 1746.78L987.57 2032.67L987.8 2083.3ZM1248.14 1735.38L1282.61 1525.63L1236.54 1746.78L1248.14 1735.38Z" />
	<path id="Path 8" fill='#bc946d' d="M1282.61 1525.63L1225.03 1738.49L1005.52 1988.86L1005.66 2014.92L1236.54 1746.78L1282.61 1525.63Z" />
	<path id="Path 9" fill='#a6ce33' d="M1024.37 130L866.44 764.85L1653.33 372.03L1024.37 130Z" />
   <path id="Path 10" fill='#bfeb33' d="M1024.37 130L380.01 300.27L866.44 764.85L1024.37 130Z" />
   <path id="Path 11" fill='#73b800' d="M866.44 764.85L302.22 668.44L380.01 300.27L866.44 764.85Z" />
   <path id="Path 12" fill='#bfeb33' d="M866.44 764.85L302.22 668.44L152.64 1376.34L866.44 764.85Z" />
   <path id="Path 13" fill='#73b800' d="M866.44 764.85L1062.26 1003.01L1653.33 372.03L866.44 764.85Z" />
   <path id="Path 14" fill='#599600' d="M1062.26 1003.01L1823.19 1065.5L1653.33 372.03L1062.26 1003.01Z" />
   <path id="Path 15" fill='#a6ce33' d="M1062.26 1003.01L152.64 1376.34L866.44 764.85L1062.26 1003.01Z" />
   <path id="Path 16" fill='#73b800' d="M1062.26 1003.01L691.61 1444.15L152.64 1376.34L1062.26 1003.01Z" />
   <path id="Path 36" fill="#365e02" d="M766.97 1937.6L587.07 1757.31L686.8 1444.29L766.97 1937.6Z" />
   <path id="Path 17" fill='#a6ce33' d="M1062.26 1003.01L1862 1223.97L1823.19 1065.5L1062.26 1003.01Z" />
   <path id="Path 18" fill='#bfeb33' d="M691.61 1444.15L1062.26 1376.34L1062.26 1003.01L691.61 1444.15Z" />
   <path id="Path 19" fill='#a6ce33' d="M1062.26 1376.34L1642.05 1681.25L1862 1223.97L1062.26 1376.34Z" />
   <path id="Path 20" fill='#bfeb33' d="M152.64 1376.34L691.61 1444.15L584.33 1756.2L152.64 1376.34Z" />
   <path id="Path 21" fill='#73b800' d="M1062.26 1003.01L1862 1223.97L1062.26 1376.34L1062.26 1003.01Z" />
</svg>