<svg xmlns="http://www.w3.org/2000/svg" viewBox="0 0 2349 2467" width="2349" height="2467">
	<path id="Path 38" fill='#73b800' d="M2198.41 487.11L2281 696.74L2082.04 772.06L2062.59 749.07L2198.41 487.11Z" />
	<path id="Path 39" fill='#407300' d="M2281 696.74L2158.31 862.22L2082.04 772.06L2281 696.74Z" />
	<path id="Path 40" fill='#73b800' d="M2215.46 930.04L2232.53 1243.82L1821.12 1032.85L2215.46 930.04ZM2232.53 1243.82L1911.21 1499.46L1849.98 1309.15L1873.51 1282.82L2232.53 1243.82Z" />
	<path id="Path 41" fill='#599600' d="M2232.53 1243.82L1873.51 1282.82L1928.3 1221.66L1849.98 1272.49L1821.12 1032.85L2232.53 1243.82ZM2158.31 862.22L2215.46 930.04L1821.12 1032.85L1950.97 616.92L2062.59 749.07L2082.04 772.06L2158.31 862.22Z" />
	<path id="Path 42" fill='#407300' d="M2198.41 487.11L2062.59 749.07L1950.97 616.92L1698.77 616.92L1712.1 556.59L2198.41 487.11Z" />
	<path id="Path 43" fill='#bfeb33' d="M2198.41 487.11L1712.1 556.59L1720.63 518.43L1970.95 377.29L2198.41 487.11Z" />
	<path id="Path 44" fill='#73b800' d="M1950.97 616.92L1821.12 1032.85L1686.5 671.74L1698.77 616.92L1950.97 616.92Z" />
	<path id="Path 45" fill='#422d11' d="M1928.3 1221.66L1873.51 1282.82L1849.98 1309.15L1808.84 1354.97L1754.75 1334.15L1821.12 1291.15L1849.98 1272.49L1928.3 1221.66Z" />
	<path id="Path 46" fill='#407300' d="M1849.98 1309.15L1911.21 1499.46L1805.93 1471.96L1737.86 1454.3L1628.31 1425.63L1808.84 1354.97L1849.98 1309.15Z" />
	<path id="Path 47" fill='#a6ce33' d="M1821.12 1032.85L1849.98 1272.49L1821.12 1291.15L1643.85 1202.17L1821.12 1032.85Z" />
	<path id="Path 48" fill='#bfeb33' d="M1686.5 671.74L1821.12 1032.85L1643.85 1202.17L1659.54 684.74L1686.5 671.74Z" />
	<path id="Path 49" fill='#365e00' d="M1821.12 1291.15L1754.75 1334.15L1534.11 1413.31L1432.09 1402.47L1366.2 1395.47L1351.02 1393.81L1643.85 1202.17L1821.12 1291.15Z" />
	<path id="Path 50" fill='#73363d' d="M1808.84 1354.97L1628.31 1425.63L1581.9 1443.8L1754.75 1334.15L1808.84 1354.97ZM1805.93 1471.96L1513.12 1562.79L1737.86 1454.3L1805.93 1471.96Z" />
	<path id="Path 51" fill='#599600' d="M1794.68 1957.73L1794.68 2066.05L1605.95 2084.86L1578.48 2074.04L1581.9 2066.05L1794.68 1957.73Z" />
	<path id="Path 52" fill='#73b800' d="M1794.68 185.65L1720.63 518.43L1712.1 556.59L1698.77 616.92L1686.5 671.74L1513.12 377.29L1794.68 185.65Z" />
	<path id="Path 53" fill='#365e00' d="M1794.68 2160.36L1743.48 2252.01L1541.46 2327L1794.68 2160.36Z" />
	<path id="Path 54" fill='#a6ce33' d="M1794.68 185.65L1513.12 377.29L1251.38 94L1794.68 185.65ZM1794.68 1957.73L1581.9 2066.05L1581.9 1891.05L1794.68 1957.73Z" />
	<path id="Path 55" fill='#365e00' d="M1794.68 2066.05L1697.42 2121.53L1605.95 2084.86L1794.68 2066.05Z" />
	<path id="Path 56" fill='#73b800' d="M1803.04 2160.36L1549.82 2327L1566.87 2066.05L1586.84 2074.04L1614.31 2084.86L1705.78 2121.53L1803.04 2160.36Z" />
	<path id="Path 57" fill='#916a47' d="M1754.75 1334.15L1581.9 1443.8L1534.11 1413.31L1754.75 1334.15Z" />
	<path id="Path 58" fill='#422d11' d="M1737.86 1454.3L1513.12 1562.79L1549.64 1499.62L1737.86 1454.3Z" />
	<path id="Path 59" fill='#599600' d="M1513.12 377.29L1686.5 671.74L1659.54 684.74L1621.48 703.08L1254.27 880.05L1513.12 377.29Z" />
	<path id="Path 60" fill='#73b800' d="M1659.54 684.74L1643.85 1202.17L1191.65 1213.33L1621.48 703.08L1659.54 684.74Z" />
	<path id="Path 61" fill='#bfeb33' d="M1643.85 1202.17L1351.02 1393.81L1267.75 1299.65L1220.49 1245.99L1208.87 1232.83L1191.65 1213.33L1643.85 1202.17ZM1621.48 703.08L1191.65 1213.33L1198.98 1038.36L1205.81 875.55L1254.27 880.05L1621.48 703.08Z" />
	<path id="Path 62" fill='#73b800' d="M1581.9 1891.05L1581.9 2066.05L1578.48 2074.04L1558.51 2066.05L1518.92 2095.86L1501.7 2043.72L1497.08 1957.73L1581.9 1891.05Z" />
	<path id="Path 63" fill='#73363d' d="M1581.9 1443.8L1549.64 1499.62L1513.12 1562.79L1479.01 1621.94L1534.11 1413.31L1581.9 1443.8Z" />
	<path id="Path 64" fill='#bfeb33' d="M1558.51 2066.05L1541.46 2327L1448.81 2303L1479.01 2268.68L1351.02 2222.18L1518.92 2095.86L1558.51 2066.05Z" />
	<path id="Path 65" fill='#916a47' d="M1534.11 1413.31L1479.01 1621.94L1385.15 1571.94L1432.09 1521.95L1534.11 1413.31Z" />
	<path id="Path 66" fill='#365e00' d="M1501.7 2043.72L1518.92 2095.86L1351.02 2222.18L1288.41 2199.36L1267.75 2211.18L1152.91 2141.02L1501.7 2043.72Z" />
	<path id="Path 67" fill='#bfeb33' d="M1251.38 94L1513.12 377.29L844.72 288.47L1251.38 94Z" />
	<path id="Path 68" fill='#73b800' d="M1513.12 369.12L1254.27 871.89L1205.81 867.38L955.65 844.06L1513.12 369.12Z" />
	<path id="Path 69" fill='#a6ce33' d="M1496.4 377.29L938.93 852.22L828.01 288.47L1496.4 377.29Z" />
	<path id="Path 70" fill='#73363d' d="M1497.08 1957.73L1501.7 2043.72L1432.09 1815.23L1479.01 1621.94L1497.08 1957.73Z" />
	<path id="Path 71" fill='#422d11' d="M1432.09 1815.23L1501.7 2043.72L1403.07 2018.05L1432.09 1815.23Z" />
	<path id="Path 72" fill='#73b800' d="M1501.7 2043.72L1152.91 2141.02L1171.84 1957.73L1366.2 2008.37L1403.07 2018.05L1501.7 2043.72Z" />
	<path id="Path 73" fill='#422d11' d="M1479.01 1621.94L1432.09 1815.23L1366.2 1710.41L1479.01 1621.94Z" />
	<path id="Path 74" fill='#73b800' d="M1479.01 2268.68L1448.81 2303L1427.8 2327L1288.41 2199.36L1351.02 2222.18L1479.01 2268.68Z" />
	<path id="Path 75" fill='#73363d' d="M1479.01 1621.94L1366.2 1710.41L1385.15 1571.94L1479.01 1621.94Z" />
	<path id="Path 76" fill='#422d11' d="M1432.09 1517.45L1432.09 1521.95L1385.15 1571.94L1366.2 1562.79L1366.2 1395.47L1432.09 1517.45Z" />
	<path id="Path 77" fill='#73363d' d="M1432.09 1402.47L1432.09 1517.45L1366.2 1395.47L1432.09 1402.47Z" />
	<path id="Path 78" fill='#916a47' d="M1366.2 1710.41L1432.09 1815.23L1403.07 2018.05L1366.2 2008.37L1366.2 1710.41Z" />
	<path id="Path 79" fill='#a6ce33' d="M1427.8 2327L1191.65 2313.17L1288.41 2199.36L1427.8 2327Z" />
	<path id="Path 80" fill='#916a47' d="M1385.15 1571.94L1366.2 1710.41L1316.88 1657.77L1335.33 1592.28L1210.77 1521.95L1235.48 1499.46L1366.2 1562.79L1385.15 1571.94Z" />
	<path id="Path 81" fill='#365e00' d="M1267.75 1299.65L1351.02 1393.81L1235.48 1499.46L1210.77 1521.95L1133.97 1592.28L1101.55 1621.94L1038.07 1679.92L1267.75 1299.65Z" />
	<path id="Path 82" fill='#422d11' d="M1335.33 1592.28L1316.88 1657.77L1166.04 1679.92L1335.33 1592.28Z" />
	<path id="Path 83" fill='#73363d' d="M1335.33 1592.28L1166.04 1679.92L1191.65 1621.94L1335.33 1592.28Z" />
	<path id="Path 84" fill='#bfeb33' d="M1288.41 2199.36L1191.65 2313.17L1191.65 2285.35L1191.65 2254.85L1267.75 2211.18L1288.41 2199.36Z" />
	<path id="Path 85" fill='#73b800' d="M1220.49 1245.99L1267.75 1299.65L1038.07 1679.92L711.13 1663.27L1220.49 1245.99Z" />
	<path id="Path 86" fill='#407300' d="M1267.75 2211.18L1191.65 2254.85L1191.65 2285.35L1029.54 2274.34L1152.91 2141.02L1267.75 2211.18Z" />
	<path id="Path 87" fill='#a6ce33' d="M1208.87 1232.83L1220.49 1245.99L711.13 1663.27L685.53 1166.17L1208.87 1232.83Z" />
	<path id="Path 88" fill='#bfeb33' d="M1208.87 1232.83L685.53 1166.17L828.7 1079.19L828.86 1079.19L923.74 1021.53L923.91 1021.53L978.34 988.37L1191.65 1213.33L1208.87 1232.83Z" />
	<path id="Path 89" fill='#73b800' d="M1198.98 1038.36L1191.65 1213.33L978.34 988.37L1198.98 1038.36Z" />
	<path id="Path 90" fill='#73363d' d="M1191.65 1621.94L1166.04 1679.92L1101.55 1621.94L1133.97 1592.28L1191.65 1621.94Z" />
	<path id="Path 91" fill='#bfeb33' d="M1171.84 1957.73L1152.91 2141.02L938.6 2154.86L1171.84 1957.73Z" />
	<path id="Path 92" fill='#73b800' d="M1152.91 2141.02L1029.54 2274.34L938.6 2154.86L1152.91 2141.02ZM844.72 288.47L955.65 852.22L759.42 788.39L844.72 288.47Z" />
	<path id="Path 93" fill='#73363d' d="M923.74 1021.53L828.86 1079.19L828.7 1079.19L725.29 1085.51L759.42 1043.86L923.74 1021.53Z" />
	<path id="Path 94" fill='#bfeb33' d="M844.72 288.47L759.42 788.39L671.19 655.08L844.72 288.47Z" />
	<path id="Path 95" fill='#916a47' d="M759.42 1043.86L725.29 1085.51L671.19 1032.85L600.21 988.37L759.42 1043.86Z" />
	<path id="Path 96" fill='#73363d' d="M759.42 1043.86L600.21 988.37L578.19 960.54L547.32 921.37L500.56 862.22L571.19 911.87L609.09 938.37L661.98 975.53L759.42 1043.86Z" />
	<path id="Path 97" fill='#599600' d="M671.19 655.08L736.73 846.72L366.94 655.08L671.19 655.08Z" />
	<path id="Path 98" fill='#365e00' d="M736.73 846.72L661.98 975.53L609.09 938.37L736.73 846.72Z" />
	<path id="Path 99" fill='#73b800' d="M736.73 846.72L609.09 938.37L571.19 911.87L736.73 846.72Z" />
   <path id="Path 100" fill='#a6ce33' d="M736.73 846.72L571.19 911.87L500.56 862.22L547.32 921.37L388.1 984.03L315.76 963.37L372.24 990.2L207.74 1055.02L366.94 655.08L736.73 846.72Z" />
   <path id="Path 101" fill='#bfeb33' d="M685.53 1166.17L711.13 1663.27L619.84 1521.95L575.98 1454.3L549.53 1413.31L526.16 1377.14L685.53 1166.17Z" />
   <path id="Path 102" fill='#422d11' d="M671.19 1032.85L514.89 1058.19L502.26 1015.7L600.21 988.37L671.19 1032.85Z" />
   <path id="Path 103" fill='#916a47' d="M619.84 1521.95L452.26 1513.28L483.49 1477.13L619.84 1521.95Z" />
   <path id="Path 104" fill='#73363d' d="M619.84 1521.95L483.49 1477.13L575.98 1454.3L619.84 1521.95Z" />
   <path id="Path 105" fill='#365e00' d="M578.19 960.54L600.21 988.37L502.26 1015.7L502.11 1015.19L578.19 960.54Z" />
   <path id="Path 106" fill='#73b800' d="M502.11 1015.19L500.9 1016.2L500.73 1016.2L500.56 1016.2L388.1 984.03L547.32 921.37L578.19 960.54L502.11 1015.19Z" />
   <path id="Path 107" fill='#73363d' d="M526.16 1377.14L549.53 1413.31L455.17 1413.31L483.49 1379.97L526.16 1377.14Z" />
   <path id="Path 108" fill='#916a47' d="M502.26 1015.7L514.89 1058.19L509.09 1055.52L471.21 1037.35L372.24 990.2L315.76 963.37L388.1 984.03L500.56 1016.2L500.73 1016.2L500.9 1016.2L502.26 1015.7Z" />
   <path id="Path 109" fill='#365e00' d="M471.21 1037.35L509.09 1055.52L349.89 1124.51L471.21 1037.35ZM423.77 1157.84L483.49 1241.16L438.1 1312.65L431.45 1302.82L423.77 1157.84Z" />
   <path id="Path 110" fill='#916a47' d="M438.1 1312.65L483.49 1379.97L455.17 1413.31L419.5 1322.98L384.01 1232.83L431.45 1302.82L438.1 1312.65Z" />
   <path id="Path 111" fill='#73363d' d="M483.49 1477.13L452.26 1513.28L384.01 1477.13L384.01 1431.3L483.49 1477.13Z" />
   <path id="Path 112" fill='#73b800' d="M471.21 1037.35L349.89 1124.51L207.74 1055.02L372.24 990.2L471.21 1037.35Z" />
   <path id="Path 113" fill='#a6ce33' d="M423.77 1157.84L431.45 1302.82L384.01 1232.83L419.5 1322.98L384.01 1326.81L361.14 1329.31L315.76 1334.15L423.77 1157.84Z" />
   <path id="Path 114" fill='#bfeb33' d="M423.77 1157.84L315.76 1334.15L315.76 1282.82L315.76 1202.17L423.77 1157.84Z" />
   <path id="Path 115" fill='#599600' d="M384.01 1477.13L384.01 1524.45L264.57 1579.95L361.14 1329.31L384.01 1326.81L384.01 1431.3L384.01 1477.13Z" />
   <path id="Path 116" fill='#bfeb33' d="M366.94 655.08L207.74 1055.02L167.81 830.05L366.94 655.08Z" />
   <path id="Path 117" fill='#a6ce33' d="M361.14 1329.31L264.57 1579.95L179.25 1334.15L315.76 1282.82L315.76 1334.15L361.14 1329.31Z" />
   <path id="Path 118" fill='#bfeb33' d="M179.25 1334.15L264.57 1579.95L111 1541.11L179.25 1334.15Z" />
</svg>