<svg xmlns="http://www.w3.org/2000/svg" viewBox="0 0 2242 3104" width="3500" height="4846">
	<g id="Folder 1">
		<path id="Path 5" fill='#c4eae7' d="M457.68 2860.58L1098.62 2646.52L1731.48 2860.58L1366.35 2931L457.68 2860.58Z" />
		<path id="Path 6" fill='#ee974e' d="M955.03 1541.98L1032.18 2264.6L1070.93 1903.29L955.03 1541.98Z" />
		<path id="Path 7" fill='#c5742d' d="M1070.93 1903.29L1171.02 1561.2L1197.75 2412.68L1070.93 1903.29Z" />
		<path id="Path 8" fill='#a95e21' d="M1032.18 2264.6L1197.75 2412.68L1070.93 1903.29L1032.18 2264.6Z" />
		<path id="Path 9" fill='#c5742d' d="M1032.18 2264.6L1032.18 2591.97L1197.75 2412.68L1032.18 2264.6Z" />
	   <path id="Path 10" fill='#a95e21' d="M1197.75 2412.68L1250.04 2840.82L1032.18 2591.97L1197.75 2412.68Z" />
	   <path id="Path 11" fill='#5c3112' d="M1032.18 2591.97L793.42 2799.7L1012.98 2840.82L1032.18 2591.97Z" />
	   <path id="Path 12" fill='#8e4b1c' d="M1012.98 2840.82L1250.04 2840.82L1032.18 2591.97L1012.98 2840.82ZM1250.04 2840.82L1387.01 2840.82L1223.9 2626.75L1250.04 2840.82Z" />
	   <path id="Path 13" fill='#6cc248' d="M181 1050.51L927.51 519.71L927.51 1442.84L181 1050.51Z" />
	   <path id="Path 14" fill='#51b046' d="M181 1050.51L446.71 1696.7L927.51 1442.84L181 1050.51Z" />
	   <path id="Path 15" fill='#9ece47' d="M181 1050.51L383.44 519.71L927.51 519.71L181 1050.51Z" />
	   <path id="Path 16" fill='#6cc248' d="M383.44 519.71L1281.8 162L927.51 519.71L383.44 519.71Z" />
	   <path id="Path 17" fill='#9ece47' d="M1281.8 162L1446.27 981.27L927.51 519.71L1281.8 162Z" />
	   <path id="Path 18" fill='#6cc248' d="M1281.8 162L1736.9 519.71L1446.27 981.27L1281.8 162Z" />
  <path id="Path 18 copy" fill='#337534' d="M446.77 1692.81L926.1 1445.01L1052.37 1872.03L446.77 1692.81Z" />
	   <path id="Path 19" fill='#51b046' d="M1446.27 981.27L927.51 1442.84L927.51 519.71L1446.27 981.27ZM1446.27 981.27L1674.03 1442.84L1736.9 519.71L1446.27 981.27Z" />
	   <path id="Path 20" fill='#6cc248' d="M1736.9 519.71L2003 1050.51L1674.03 1442.84L1736.9 519.71Z" />
  <path id="Path 20 copy" fill='#50af45' d="M1683.77 1453.46L1426.75 955.01L1710.61 571.59L1683.77 1453.46Z" />
	   <path id="Path 21" fill='#3e923e' d="M927.51 1442.84L1674.03 1442.84L1446.27 981.27L927.51 1442.84ZM1674.03 1442.84L1645.29 1771.65L2003 1050.51L1674.03 1442.84Z" />
	   <path id="Path 22" fill='#327634' d="M1645.29 1771.65L927.51 1442.84L1674.03 1442.84L1645.29 1771.65ZM446.71 1696.7L1066.69 1904.4L927.51 1442.84L446.71 1696.7Z" />
	   <path id="Path 23" fill='#3e923e' d="M1066.69 1904.4L1645.29 1771.65L927.51 1442.84L1066.69 1904.4Z" />
	</g>
</svg>