<svg xmlns="http://www.w3.org/2000/svg" viewBox="0 0 2283 3079" width="2283" height="3079">
	<path id="Path 40" fill='#814c23' d="M1075.18 2619.18L1181.85 2729.32L1536.71 2474.61L1500.21 2436.91L1075.18 2619.18Z" />
	<path id="Path 41" fill='#b36832' d="M1381.5 2967L860.49 2967L1031.87 1899.79L1210.14 1899.79L1381.5 2967ZM1091.25 2714.31L984.58 2824.45L629.73 2569.74L666.23 2532.04L1091.25 2714.31Z" />
	<path id="Path 46" fill='#41682d' d="M2156 2012.25L1256.52 931.45L985.48 931.45L86 2012.25L455.02 2436.91L1786.98 2436.91L2156 2012.25Z" />
	<path id="Path 48" fill='#375927' d="M1665.39 2012.19L576.6 2012.19L326.02 1723.84L411.83 1620.73L576.6 1810.34L1665.39 1810.34L1830.17 1620.73L1915.98 1723.83L1665.39 2012.19Z" />
	<path id="Path 49" fill='#5c9039' d="M1967.04 1463.21L1231.77 579.73L1010.22 579.73L274.95 1463.21L576.6 1810.34L1665.39 1810.34L1967.04 1463.21Z" />
	<path id="Path 51" fill='#4b7b33' d="M1543.81 1385.63L698.19 1385.63L514.98 1174.79L1010.22 579.73L1231.77 579.73L1727.02 1174.8L1543.81 1385.63Z" />
	<path id="Path 52" fill='#7bb647' d="M1778.09 914.17L1207.03 228L1034.97 228L463.91 914.17L698.19 1183.78L1543.81 1183.78L1778.09 914.17Z" />
</svg>