<?xml version="1.0" encoding="utf-8"?>
<svg id="master-artboard" viewBox="0 0 980 1300" version="1.1" xmlns="http://www.w3.org/2000/svg" x="0px" y="0px" enable-background="new 0 0 3500 2800" width="980px" height="1300px"><rect id="ee-background" x="0" y="0" width="980" height="1300" style="fill: white; fill-opacity: 0; pointer-events: none;"/>
<path d="M 2105.200043 1211.800049 A 260.899994 63 0 0 1 1844.300049 1274.800049 A 260.899994 63 0 0 1 1583.400055 1211.800049 A 260.899994 63 0 0 1 1844.300049 1148.800049 A 260.899994 63 0 0 1 2105.200043 1211.800049 Z" fill="#DDE2D9" transform="matrix(1, 0, 0, 1, -1303.54541015625, -26.296302795410156)"/><g transform="matrix(1, 0, 0, 1, -1303.54541015625, -26.296302795410156)">
			<path d="M 2010.9000244140625 875.7000122070312 L 1829.199951171875 968.7999877929688 L 1833.699951171875 984.2000122070312 L 2019.800048828125 878 Z" fill="#D18227"/>
			<path d="M 1833.699951171875 984.2000122070312 L 1843.9000244140625 1001 L 2025.300048828125 884.5 L 2019.800048828125 878 Z" fill="#B06326"/>
			<path d="M 1843.9000244140625 1001 L 1857.300048828125 1004.9000244140625 L 2025.4000244140625 891.9000244140625 L 2025.300048828125 884.5 Z" fill="#90471F"/>
		</g><g transform="matrix(1, 0, 0, 1, -1303.54541015625, -26.296302795410156)">
				<path d="M 2154.39990234375 928.5 L 2048.60009765625 941.9000244140625 L 2051.39990234375 904.5 Z" fill="#188843"/>
				<path d="M 2051.39990234375 904.5 L 1978.300048828125 899 L 1940.0999755859375 824 Z" fill="#49B449"/>
				<path d="M 2046.4000244140625 782.9000244140625 L 1940.0999755859375 824 L 1953.699951171875 774 Z" fill="#9ECC4A"/>
				<path d="M 2088.10009765625 680.7000122070312 L 2046.4000244140625 782.9000244140625 L 1987 699.5 Z" fill="#78C043"/>
				<path d="M 2088.10009765625 680.7000122070312 L 2123.800048828125 826.7000122070312 L 2046.4000244140625 782.9000244140625 Z" fill="#49B449"/>
				<path d="M 2208 826.7000122070312 L 2154.39990234375 928.5 L 2123.800048828125 826.7000122070312 Z" fill="#188843"/>
				<path d="M 2046.4000244140625 782.9000244140625 L 2051.39990234375 904.5 L 1940.0999755859375 824 Z" fill="#78C043"/>
				<path d="M 1956.199951171875 765.0999755859375 L 1987 699.5 L 2046.4000244140625 782.9000244140625 L 1953.699951171875 774 Z" fill="#A4CE4B"/>
				<path d="M 2169.10009765625 703.5 L 2208 826.7000122070312 L 2088.10009765625 680.7000122070312 Z" fill="#188843"/>
				<path d="M 2088.10009765625 680.7000122070312 L 2208 826.7000122070312 L 2123.800048828125 826.7000122070312 Z" fill="#27A048"/>
				<path d="M 2123.800048828125 826.7000122070312 L 2154.39990234375 928.5 L 2051.39990234375 904.5 L 2046.4000244140625 782.9000244140625 Z" fill="#27A048"/>
				<path d="M 2051.39990234375 904.5 L 2048.60009765625 941.9000244140625 L 1978.300048828125 899 Z" fill="#27A048"/>
			</g><path d="M 1646.199951171875 834.9000244140625 L 1814.5999755859375 950.4000244140625 L 1828.5999755859375 935.0999755859375 L 1645 824.4000244140625 Z" fill="#D18227" transform="matrix(1, 0, 0, 1, -1303.54541015625, -26.296302795410156)"/><path d="M 1828.5999755859375 935.0999755859375 L 1841.800048828125 913 L 1649.4000244140625 814.2999877929688 L 1645 824.4000244140625 Z" fill="#B06326" transform="matrix(1, 0, 0, 1, -1303.54541015625, -26.296302795410156)"/><path d="M 1841.800048828125 913 L 1840.4000244140625 896.7999877929688 L 1657 808.9000244140625 L 1649.4000244140625 814.2999877929688 Z" fill="#90471F" transform="matrix(1, 0, 0, 1, -1303.54541015625, -26.296302795410156)"/><path d="M 1816.199951171875 641.0999755859375 L 1787.300048828125 1204.5 L 1823.199951171875 1220.199951171875 L 1823.9000244140625 641.2000122070312 Z" fill="#D18227" transform="matrix(1, 0, 0, 1, -1303.54541015625, -26.296302795410156)"/><path d="M 1823.199951171875 1220.199951171875 L 1861.0999755859375 1218.5 L 1838 641.4000244140625 L 1823.9000244140625 641.2000122070312 Z" fill="#B06326" transform="matrix(1, 0, 0, 1, -1303.54541015625, -26.296302795410156)"/><path d="M 1861.0999755859375 1218.5 L 1889.9000244140625 1192.9000244140625 L 1846.300048828125 629.7999877929688 L 1838 641.4000244140625 Z" fill="#90471F" transform="matrix(1, 0, 0, 1, -1303.54541015625, -26.296302795410156)"/><g transform="matrix(1, 0, 0, 1, -1303.54541015625, -26.296302795410156)">
				<path d="M 2005.699951171875 778 L 1733.9000244140625 809 L 1741.199951171875 722.5 Z" fill="#188843"/>
				<path d="M 1741.199951171875 722.5 L 1553.199951171875 709.7000122070312 L 1455.0999755859375 536 Z" fill="#49B449"/>
				<path d="M 1728.300048828125 440.70001220703125 L 1455.0999755859375 536 L 1490.0999755859375 420.1000061035156 Z" fill="#9ECC4A"/>
				<path d="M 1835.300048828125 203.89999389648438 L 1728.300048828125 440.70001220703125 L 1575.5999755859375 247.3000030517578 Z" fill="#78C043"/>
				<path d="M 1835.300048828125 203.89999389648438 L 1927 542.0999755859375 L 1728.300048828125 440.70001220703125 Z" fill="#49B449"/>
				<path d="M 2143.39990234375 542.0999755859375 L 2005.699951171875 778 L 1927 542.0999755859375 Z" fill="#188843"/>
				<path d="M 1728.300048828125 440.70001220703125 L 1741.199951171875 722.5 L 1455.0999755859375 536 Z" fill="#78C043"/>
				<path d="M 1496.4000244140625 399.3999938964844 L 1575.5999755859375 247.3000030517578 L 1728.300048828125 440.70001220703125 L 1490.0999755859375 420.1000061035156 Z" fill="#A4CE4B"/>
				<path d="M 2043.5 256.70001220703125 L 2143.39990234375 542.0999755859375 L 1835.300048828125 203.89999389648438 Z" fill="#188843"/>
				<path d="M 1835.300048828125 203.89999389648438 L 2143.39990234375 542.0999755859375 L 1927 542.0999755859375 Z" fill="#27A048"/>
				<path d="M 1927 542.0999755859375 L 2005.699951171875 778 L 1741.199951171875 722.5 L 1728.300048828125 440.70001220703125 Z" fill="#27A048"/>
				<path d="M 1741.199951171875 722.5 L 1733.9000244140625 809 L 1553.199951171875 709.7000122070312 Z" fill="#27A048"/>
			</g><g transform="matrix(1, 0, 0, 1, -1303.54541015625, -26.296302795410156)">
				<path d="M 1688.5999755859375 890.2999877929688 L 1519.800048828125 911.5999755859375 L 1524.4000244140625 852 Z" fill="#188843"/>
				<path d="M 1524.4000244140625 852 L 1407.699951171875 843.2000122070312 L 1346.800048828125 723.7000122070312 Z" fill="#49B449"/>
				<path d="M 1516.4000244140625 658.0999755859375 L 1346.800048828125 723.7000122070312 L 1368.5999755859375 643.9000244140625 Z" fill="#9ECC4A"/>
				<path d="M 1582.800048828125 495.1000061035156 L 1516.4000244140625 658.0999755859375 L 1421.5999755859375 525 Z" fill="#78C043"/>
				<path d="M 1582.800048828125 495.1000061035156 L 1639.699951171875 727.9000244140625 L 1516.4000244140625 658.0999755859375 Z" fill="#49B449"/>
				<path d="M 1774.0999755859375 727.9000244140625 L 1688.5999755859375 890.2999877929688 L 1639.699951171875 727.9000244140625 Z" fill="#188843"/>
				<path d="M 1516.4000244140625 658.0999755859375 L 1524.4000244140625 852 L 1346.800048828125 723.7000122070312 Z" fill="#78C043"/>
				<path d="M 1372.5 629.7000122070312 L 1421.5999755859375 525 L 1516.4000244140625 658.0999755859375 L 1368.5999755859375 643.9000244140625 Z" fill="#A4CE4B"/>
				<path d="M 1712.0999755859375 531.4000244140625 L 1774.0999755859375 727.9000244140625 L 1582.800048828125 495.1000061035156 Z" fill="#188843"/>
				<path d="M 1582.800048828125 495.1000061035156 L 1774.0999755859375 727.9000244140625 L 1639.699951171875 727.9000244140625 Z" fill="#27A048"/>
				<path d="M 1639.699951171875 727.9000244140625 L 1688.5999755859375 890.2999877929688 L 1524.4000244140625 852 L 1516.4000244140625 658.0999755859375 Z" fill="#27A048"/>
				<path d="M 1524.4000244140625 852 L 1519.800048828125 911.5999755859375 L 1407.699951171875 843.2000122070312 Z" fill="#27A048"/>
			</g>
</svg>