<?xml version="1.0" encoding="utf-8"?>
<svg id="master-artboard" viewBox="0 0 959.875732421875 1191.2545166015625" version="1.1" xmlns="http://www.w3.org/2000/svg" x="0px" y="0px" enable-background="new 0 0 3500 2800" width="959.875732421875px" height="1191.2545166015625px"><rect id="ee-background" x="0" y="0" width="959.875732421875" height="1191.2545166015625" style="fill: white; fill-opacity: 0; pointer-events: none;"/>
<path d="M 3119.000092 2563.5 A 272.899994 63 0 0 1 2846.100098 2626.5 A 272.899994 63 0 0 1 2573.200104 2563.5 A 272.899994 63 0 0 1 2846.100098 2500.5 A 272.899994 63 0 0 1 3119.000092 2563.5 Z" fill="#DDE2D9" transform="matrix(1, 0, 0, 1, -2307.2797241210938, -1474.683349609375)"/><path d="M 2850.5 2264.699951171875 L 2885.60009765625 2568.10009765625 L 2848.60009765625 2575.800048828125 L 2833.10009765625 2266 Z" fill="#D18227" transform="matrix(1, 0, 0, 1, -2307.2797241210938, -1474.683349609375)"/><path d="M 2848.60009765625 2575.800048828125 L 2797.5 2578.5 L 2811.5 2267.60009765625 L 2833.10009765625 2266 Z" fill="#B06326" transform="matrix(1, 0, 0, 1, -2307.2797241210938, -1474.683349609375)"/><path d="M 2797.5 2578.5 L 2764.10009765625 2572.699951171875 L 2795.5 2262.300048828125 L 2811.5 2267.60009765625 Z" fill="#90471F" transform="matrix(1, 0, 0, 1, -2307.2797241210938, -1474.683349609375)"/><g transform="matrix(1, 0, 0, 1, -2307.2797241210938, -1474.683349609375)">
			<path d="M 2437 2278.5 L 2812.199951171875 2206.10009765625 L 2812.199951171875 1744.9000244140625 Z" fill="#9ECC4A"/>
			<path d="M 2437 2278.5 L 2812.199951171875 2206.10009765625 L 2812.199951171875 1744.9000244140625 Z" fill="#188843"/>
			<path d="M 3186.60009765625 2278.5 L 2811.39990234375 2206.10009765625 L 2811.39990234375 1744.9000244140625 Z" fill="#27A048"/>
			<path d="M 2437 2278.5 L 2812.39990234375 2336.10009765625 L 2811.39990234375 2206.10009765625 Z" fill="#10783D"/>
			<path d="M 2812.39990234375 2336.10009765625 L 3186.60009765625 2278.5 L 2811.39990234375 2206.10009765625 Z" fill="#188843"/>
		</g><path d="M 2516.5 2015.300048828125 L 2810.10009765625 1963.9000244140625 L 2810.10009765625 1636.300048828125 Z" fill="#9ECC4A" transform="matrix(1, 0, 0, 1, -2307.2797241210938, -1474.683349609375)"/><path d="M 2516.5 2015.300048828125 L 2810.10009765625 1963.9000244140625 L 2810.10009765625 1636.300048828125 Z" fill="#27A048" transform="matrix(1, 0, 0, 1, -2307.2797241210938, -1474.683349609375)"/><path d="M 3103.10009765625 2015.300048828125 L 2809.5 1963.9000244140625 L 2809.5 1636.300048828125 Z" fill="#49B449" transform="matrix(1, 0, 0, 1, -2307.2797241210938, -1474.683349609375)"/><path d="M 2516.5 2015.300048828125 L 2810.300048828125 2064.10009765625 L 2809.5 1963.9000244140625 Z" fill="#10783D" transform="matrix(1, 0, 0, 1, -2307.2797241210938, -1474.683349609375)"/><path d="M 2810.300048828125 2064.10009765625 L 3103.10009765625 2015.300048828125 L 2809.5 1963.9000244140625 Z" fill="#188843" transform="matrix(1, 0, 0, 1, -2307.2797241210938, -1474.683349609375)"/><path d="M 2600.89990234375 1775 L 2810 1738.300048828125 L 2810 1505 Z" fill="#9ECC4A" transform="matrix(1, 0, 0, 1, -2307.2797241210938, -1474.683349609375)"/><path d="M 2600.89990234375 1775 L 2810 1738.300048828125 L 2810 1505 Z" fill="#49B449" transform="matrix(1, 0, 0, 1, -2307.2797241210938, -1474.683349609375)"/><path d="M 3018.699951171875 1775 L 2809.60009765625 1738.300048828125 L 2809.60009765625 1505 Z" fill="#78C043" transform="matrix(1, 0, 0, 1, -2307.2797241210938, -1474.683349609375)"/><path d="M 2600.89990234375 1775 L 2810.10009765625 1809.699951171875 L 2809.60009765625 1738.300048828125 Z" fill="#188843" transform="matrix(1, 0, 0, 1, -2307.2797241210938, -1474.683349609375)"/><path d="M 2810.10009765625 1809.699951171875 L 3018.699951171875 1775 L 2809.60009765625 1738.300048828125 Z" fill="#27A048" transform="matrix(1, 0, 0, 1, -2307.2797241210938, -1474.683349609375)"/>
</svg>