<?xml version="1.0" encoding="utf-8"?>
<svg id="master-artboard" viewBox="0 0 617.6646118164062 1279.4532470703125" version="1.1" xmlns="http://www.w3.org/2000/svg" x="0px" y="0px" enable-background="new 0 0 3500 2800" width="617.6646118164062px" height="1279.4532470703125px"><rect id="ee-background" x="0" y="0" width="617.6646118164062" height="1279.4532470703125" style="fill: white; fill-opacity: 0; pointer-events: none;"/>
<path d="M 3029.100098 1278.800049 A 189 63 0 0 1 2840.100098 1341.800049 A 189 63 0 0 1 2651.100098 1278.800049 A 189 63 0 0 1 2840.100098 1215.800049 A 189 63 0 0 1 3029.100098 1278.800049 Z" fill="#DDE2D9" transform="matrix(1, 0, 0, 1, -2522.484443664551, -112.89441013336182)"/><g transform="matrix(1, 0, 0, 1, -2522.484443664551, -112.89441013336182)">
			<path d="M 2942.60009765625 1081.5 L 2854.5 1104 L 2856.800048828125 1119.300048828125 L 2946.89990234375 1090.5999755859375 Z" fill="#D18227"/>
			<path d="M 2856.800048828125 1119.300048828125 L 2862 1138 L 2949.699951171875 1098.300048828125 L 2946.89990234375 1090.5999755859375 Z" fill="#B06326"/>
			<path d="M 2862 1138 L 2868.60009765625 1146.300048828125 L 2949.699951171875 1107.9000244140625 L 2949.699951171875 1098.300048828125 Z" fill="#90471F"/>
		</g><path d="M 2952.800048828125 1012.9000244140625 L 2918.60009765625 1097.199951171875 L 2928.699951171875 1102.9000244140625 L 2960.39990234375 1013.9000244140625 Z" fill="#D18227" transform="matrix(1, 0, 0, 1, -2522.484443664551, -112.89441013336182)"/><path d="M 2928.699951171875 1102.9000244140625 L 2942.300048828125 1108 L 2966.300048828125 1015.5 L 2960.39990234375 1013.9000244140625 Z" fill="#B06326" transform="matrix(1, 0, 0, 1, -2522.484443664551, -112.89441013336182)"/><path d="M 2942.300048828125 1108 L 2950.60009765625 1106.699951171875 L 2971.89990234375 1020.2999877929688 L 2966.300048828125 1015.5 Z" fill="#90471F" transform="matrix(1, 0, 0, 1, -2522.484443664551, -112.89441013336182)"/><path d="M 2852.10009765625 820.5999755859375 L 2882.5 1274.699951171875 L 2853.800048828125 1285.199951171875 L 2836.10009765625 821.7999877929688 Z" fill="#D18227" transform="matrix(1, 0, 0, 1, -2522.484443664551, -112.89441013336182)"/><path d="M 2853.800048828125 1285.199951171875 L 2826.89990234375 1286.300048828125 L 2816.300048828125 823.2000122070312 L 2836.10009765625 821.7999877929688 Z" fill="#B06326" transform="matrix(1, 0, 0, 1, -2522.484443664551, -112.89441013336182)"/><path d="M 2826.89990234375 1286.300048828125 L 2801.60009765625 1271.5 L 2801.300048828125 814.7999877929688 L 2816.300048828125 823.2000122070312 Z" fill="#90471F" transform="matrix(1, 0, 0, 1, -2522.484443664551, -112.89441013336182)"/><path d="M 2581.89990234375 847.7999877929688 L 2586.5 958.0999755859375 L 2700.800048828125 1039.0999755859375 Z" fill="#117B3E" transform="matrix(1, 0, 0, 1, -2522.484443664551, -112.89441013336182)"/><path d="M 2581.89990234375 847.7999877929688 L 2594.10009765625 716.2000122070312 L 2745.39990234375 770.7999877929688 Z" fill="#117B3E" transform="matrix(1, 0, 0, 1, -2522.484443664551, -112.89441013336182)"/><path d="M 2745.39990234375 770.7999877929688 L 2581.89990234375 847.7999877929688 L 2700.800048828125 1039.0999755859375 Z" fill="#188843" transform="matrix(1, 0, 0, 1, -2522.484443664551, -112.89441013336182)"/><path d="M 2700.800048828125 1039.0999755859375 L 2870.39990234375 1054.300048828125 L 2715.89990234375 900.0999755859375 Z" fill="#117B3E" transform="matrix(1, 0, 0, 1, -2522.484443664551, -112.89441013336182)"/><path d="M 2870.39990234375 1054.300048828125 L 3011.5 1027.699951171875 L 2931.39990234375 878 Z" fill="#117B3E" transform="matrix(1, 0, 0, 1, -2522.484443664551, -112.89441013336182)"/><path d="M 2931.39990234375 878 L 3087.89990234375 916.0999755859375 L 3011.5 1027.699951171875 Z" fill="#188843" transform="matrix(1, 0, 0, 1, -2522.484443664551, -112.89441013336182)"/><path d="M 2715.89990234375 900.0999755859375 L 2870.39990234375 1054.300048828125 L 2931.39990234375 878 Z" fill="#188843" transform="matrix(1, 0, 0, 1, -2522.484443664551, -112.89441013336182)"/><path d="M 2745.39990234375 770.7999877929688 L 2931.39990234375 878 L 2715.89990234375 900.0999755859375 Z" fill="#27A048" transform="matrix(1, 0, 0, 1, -2522.484443664551, -112.89441013336182)"/><path d="M 2931.39990234375 878 L 3119.39990234375 802.7000122070312 L 3087.89990234375 916.0999755859375 Z" fill="#117B3E" transform="matrix(1, 0, 0, 1, -2522.484443664551, -112.89441013336182)"/><path d="M 2931.39990234375 878 L 2890.699951171875 670.7000122070312 L 2745.39990234375 770.7999877929688 Z" fill="#188843" transform="matrix(1, 0, 0, 1, -2522.484443664551, -112.89441013336182)"/><path d="M 2890.699951171875 670.7000122070312 L 3119.39990234375 802.7000122070312 L 2931.39990234375 878 Z" fill="#27A048" transform="matrix(1, 0, 0, 1, -2522.484443664551, -112.89441013336182)"/><path d="M 2890.699951171875 670.7000122070312 L 3041.10009765625 649.4000244140625 L 3004.60009765625 738 Z" fill="#49B449" transform="matrix(1, 0, 0, 1, -2522.484443664551, -112.89441013336182)"/><path d="M 3004.60009765625 738 L 3119.39990234375 802.7000122070312 L 3041.10009765625 649.4000244140625 Z" fill="#49B449" transform="matrix(1, 0, 0, 1, -2522.484443664551, -112.89441013336182)"/><path d="M 3119.39990234375 802.7000122070312 L 3103.10009765625 606 L 3041.10009765625 649.4000244140625 Z" fill="#27A048" transform="matrix(1, 0, 0, 1, -2522.484443664551, -112.89441013336182)"/><path d="M 2745.39990234375 770.7999877929688 L 2691.60009765625 540.4000244140625 L 2594.10009765625 716.2000122070312 Z" fill="#188843" transform="matrix(1, 0, 0, 1, -2522.484443664551, -112.89441013336182)"/><path d="M 2745.39990234375 770.7999877929688 L 2890.699951171875 670.7000122070312 L 2691.60009765625 540.4000244140625 Z" fill="#219647" transform="matrix(1, 0, 0, 1, -2522.484443664551, -112.89441013336182)"/><path d="M 2890.699951171875 670.7000122070312 L 2915.10009765625 458 L 3041.10009765625 649.4000244140625 Z" fill="#78C043" transform="matrix(1, 0, 0, 1, -2522.484443664551, -112.89441013336182)"/><path d="M 2915.10009765625 458 L 3039.10009765625 424.3999938964844 L 3041.10009765625 649.4000244140625 Z" fill="#49B449" transform="matrix(1, 0, 0, 1, -2522.484443664551, -112.89441013336182)"/><path d="M 3039.10009765625 424.3999938964844 L 3103.10009765625 606 L 3041.10009765625 649.4000244140625 Z" fill="#78C043" transform="matrix(1, 0, 0, 1, -2522.484443664551, -112.89441013336182)"/><path d="M 2915.10009765625 458 L 2691.60009765625 540.4000244140625 L 2890.699951171875 670.7000122070312 Z" fill="#27A048" transform="matrix(1, 0, 0, 1, -2522.484443664551, -112.89441013336182)"/><path d="M 2691.60009765625 540.4000244140625 L 2577.699951171875 452.70001220703125 L 2568.60009765625 573.2000122070312 Z" fill="#188843" transform="matrix(1, 0, 0, 1, -2522.484443664551, -112.89441013336182)"/><path d="M 2568.60009765625 573.2000122070312 L 2594.10009765625 716.2000122070312 L 2691.60009765625 540.4000244140625 Z" fill="#117B3E" transform="matrix(1, 0, 0, 1, -2522.484443664551, -112.89441013336182)"/><path d="M 2691.60009765625 540.4000244140625 L 2666.10009765625 309.20001220703125 L 2577.699951171875 452.70001220703125 Z" fill="#27A048" transform="matrix(1, 0, 0, 1, -2522.484443664551, -112.89441013336182)"/><path d="M 2691.60009765625 540.4000244140625 L 2915.10009765625 458 L 2850.10009765625 368.6000061035156 Z" fill="#49B449" transform="matrix(1, 0, 0, 1, -2522.484443664551, -112.89441013336182)"/><path d="M 2850.10009765625 368.6000061035156 L 2666.10009765625 309.20001220703125 L 2691.60009765625 540.4000244140625 Z" fill="#78C043" transform="matrix(1, 0, 0, 1, -2522.484443664551, -112.89441013336182)"/><path d="M 2979.199951171875 317.20001220703125 L 2915.10009765625 458 L 2850.10009765625 368.6000061035156 Z" fill="#78C043" transform="matrix(1, 0, 0, 1, -2522.484443664551, -112.89441013336182)"/><path d="M 2979.199951171875 317.20001220703125 L 3039.10009765625 424.3999938964844 L 2915.10009765625 458 Z" fill="#9ECC4A" transform="matrix(1, 0, 0, 1, -2522.484443664551, -112.89441013336182)"/><path d="M 2850.10009765625 368.6000061035156 L 2800.300048828125 174.5 L 2898.89990234375 202.89999389648438 Z" fill="#78C043" transform="matrix(1, 0, 0, 1, -2522.484443664551, -112.89441013336182)"/><path d="M 2898.89990234375 202.89999389648438 L 2979.199951171875 317.20001220703125 L 2850.10009765625 368.6000061035156 Z" fill="#9ECC4A" transform="matrix(1, 0, 0, 1, -2522.484443664551, -112.89441013336182)"/><path d="M 2800.300048828125 174.5 L 2666.10009765625 309.20001220703125 L 2850.10009765625 368.6000061035156 Z" fill="#49B449" transform="matrix(1, 0, 0, 1, -2522.484443664551, -112.89441013336182)"/>
</svg>